<?xml version="1.0" encoding="UTF-8"?>
<!DOCTYPE svg PUBLIC "-//W3C//DTD SVG 1.1//EN" "http://www.w3.org/Graphics/SVG/1.1/DTD/svg11.dtd">
<svg xmlns="http://www.w3.org/2000/svg" version="1.1" width="500px" height="500px" style="shape-rendering:geometricPrecision; text-rendering:geometricPrecision; image-rendering:optimizeQuality; fill-rule:evenodd; clip-rule:evenodd" xmlns:xlink="http://www.w3.org/1999/xlink">
<g><path style="opacity:1" fill="#f7f7f7" d="M -0.5,-0.5 C 5.5,-0.5 11.5,-0.5 17.5,-0.5C 9.14116,3.19215 3.14116,9.19215 -0.5,17.5C -0.5,11.5 -0.5,5.5 -0.5,-0.5 Z"/></g>
<g><path style="opacity:1" fill="#010101" d="M 17.5,-0.5 C 85.8333,-0.5 154.167,-0.5 222.5,-0.5C 231.816,2.65054 237.983,8.98387 241,18.5C 241.5,44.4979 241.667,70.4979 241.5,96.5C 260.833,96.5 280.167,96.5 299.5,96.5C 337.835,96.3333 376.168,96.5 414.5,97C 420.035,102.703 425.702,108.203 431.5,113.5C 432.833,115.5 434.5,117.167 436.5,118.5C 440.833,123.5 445.5,128.167 450.5,132.5C 451.5,134.167 452.833,135.5 454.5,136.5C 456.833,139.5 459.5,142.167 462.5,144.5C 463.5,146.167 464.833,147.5 466.5,148.5C 470.167,152.833 474.167,156.833 478.5,160.5C 485.167,167.833 492.167,174.833 499.5,181.5C 499.5,287.5 499.5,393.5 499.5,499.5C 402.833,499.5 306.167,499.5 209.5,499.5C 209.5,470.167 209.5,440.833 209.5,411.5C 209.5,401.833 209.5,392.167 209.5,382.5C 209.832,324.664 209.499,266.998 208.5,209.5C 203.167,209.5 197.833,209.5 192.5,209.5C 192.666,215.842 192.5,222.175 192,228.5C 186.559,240.468 177.726,243.968 165.5,239C 161.908,236.079 159.075,232.579 157,228.5C 156.283,229.044 155.783,229.711 155.5,230.5C 152.91,229.872 150.577,228.705 148.5,227C 150.557,225.281 152.224,223.281 153.5,221C 151.97,217.439 150.303,213.939 148.5,210.5C 105.839,209.5 63.1719,209.167 20.5,209.5C 9.54215,206.873 2.54215,200.207 -0.5,189.5C -0.5,132.167 -0.5,74.8333 -0.5,17.5C 3.14116,9.19215 9.14116,3.19215 17.5,-0.5 Z"/></g>
<g><path style="opacity:1" fill="#fefefe" d="M 222.5,-0.5 C 277.833,-0.5 333.167,-0.5 388.5,-0.5C 369.458,2.17801 352.458,9.51135 337.5,21.5C 335.611,22.604 333.945,23.9373 332.5,25.5C 311.556,44.3955 300.556,68.0622 299.5,96.5C 280.167,96.5 260.833,96.5 241.5,96.5C 241.667,70.4979 241.5,44.4979 241,18.5C 237.983,8.98387 231.816,2.65054 222.5,-0.5 Z"/></g>
<g><path style="opacity:1" fill="#eb6b44" d="M 388.5,-0.5 C 396.167,-0.5 403.833,-0.5 411.5,-0.5C 415.083,0.386264 418.75,1.38626 422.5,2.5C 451.062,24.4458 467.395,53.4458 471.5,89.5C 460.68,91.0346 450.68,88.8679 441.5,83C 437.656,80.578 433.99,77.9113 430.5,75C 420.608,65.8619 410.941,56.5286 401.5,47C 382.732,32.1182 361.399,23.6182 337.5,21.5C 352.458,9.51135 369.458,2.17801 388.5,-0.5 Z"/></g>
<g><path style="opacity:1" fill="#fefdfd" d="M 411.5,-0.5 C 440.833,-0.5 470.167,-0.5 499.5,-0.5C 499.5,28.5 499.5,57.5 499.5,86.5C 498.48,81.7561 497.147,77.0894 495.5,72.5C 495.59,69.8478 494.924,67.5145 493.5,65.5C 482.5,36.5 462.5,16.5 433.5,5.5C 429.905,4.30284 426.239,3.30284 422.5,2.5C 418.75,1.38626 415.083,0.386264 411.5,-0.5 Z"/></g>
<g><path style="opacity:1" fill="#3e3633" d="M 422.5,2.5 C 426.239,3.30284 429.905,4.30284 433.5,5.5C 457.401,27.6307 471.568,54.964 476,87.5C 484.996,82.6716 490.83,75.3383 493.5,65.5C 494.924,67.5145 495.59,69.8478 495.5,72.5C 491.576,80.7583 485.576,87.0916 477.5,91.5C 476.167,96.1667 476.167,100.833 477.5,105.5C 485.124,102.686 492.457,99.3528 499.5,95.5C 499.5,97.1667 499.5,98.8333 499.5,100.5C 492.113,104.189 484.447,107.355 476.5,110C 474.95,115.374 473.95,120.874 473.5,126.5C 480.746,126.694 487.413,128.694 493.5,132.5C 493.598,134.553 492.931,136.22 491.5,137.5C 485.928,132.429 479.261,130.096 471.5,130.5C 470.235,136.626 468.568,142.626 466.5,148.5C 464.833,147.5 463.5,146.167 462.5,144.5C 464.637,140.604 466.303,136.438 467.5,132C 462.564,131.812 458.231,133.312 454.5,136.5C 452.833,135.5 451.5,134.167 450.5,132.5C 456.484,130.177 462.484,127.843 468.5,125.5C 470.278,120.854 470.944,116.187 470.5,111.5C 459.215,114.651 447.882,116.985 436.5,118.5C 434.5,117.167 432.833,115.5 431.5,113.5C 437.861,113.397 444.194,112.897 450.5,112C 457.481,110.338 464.481,108.838 471.5,107.5C 471.666,102.821 471.499,98.1548 471,93.5C 459.317,95.2065 448.484,92.7065 438.5,86C 424.904,75.0742 411.904,63.4075 399.5,51C 380.121,34.9265 357.788,26.4265 332.5,25.5C 333.945,23.9373 335.611,22.604 337.5,21.5C 361.399,23.6182 382.732,32.1182 401.5,47C 410.941,56.5286 420.608,65.8619 430.5,75C 433.99,77.9113 437.656,80.578 441.5,83C 450.68,88.8679 460.68,91.0346 471.5,89.5C 467.395,53.4458 451.062,24.4458 422.5,2.5 Z"/></g>
<g><path style="opacity:1" fill="#eb6b45" d="M 433.5,5.5 C 462.5,16.5 482.5,36.5 493.5,65.5C 490.83,75.3383 484.996,82.6716 476,87.5C 471.568,54.964 457.401,27.6307 433.5,5.5 Z"/></g>
<g><path style="opacity:1" fill="#e4e7eb" d="M 219.5,192.5 C 205.167,192.5 190.833,192.5 176.5,192.5C 176.5,203.167 176.5,213.833 176.5,224.5C 175.614,225.776 174.614,225.776 173.5,224.5C 168.5,214.5 163.5,204.5 158.5,194.5C 112.837,193.667 67.1703,193.167 21.5,193C 19.714,192.215 18.214,191.049 17,189.5C 15.3418,133.249 15.0085,76.9159 16,20.5C 17.1667,19.3333 18.3333,18.1667 19.5,17C 53.0831,15.8398 86.7497,15.3398 120.5,15.5C 154.25,15.3398 187.917,15.8398 221.5,17C 223.049,18.214 224.215,19.714 225,21.5C 225.667,76.8333 225.667,132.167 225,187.5C 223.924,190.079 222.091,191.746 219.5,192.5 Z"/></g>
<g><path style="opacity:1" fill="#eb6a43" d="M 332.5,25.5 C 357.788,26.4265 380.121,34.9265 399.5,51C 411.904,63.4075 424.904,75.0742 438.5,86C 448.484,92.7065 459.317,95.2065 471,93.5C 471.499,98.1548 471.666,102.821 471.5,107.5C 464.481,108.838 457.481,110.338 450.5,112C 444.194,112.897 437.861,113.397 431.5,113.5C 425.702,108.203 420.035,102.703 414.5,97C 376.168,96.5 337.835,96.3333 299.5,96.5C 300.556,68.0622 311.556,44.3955 332.5,25.5 Z"/></g>
<g><path style="opacity:1" fill="#040404" d="M 116.5,31.5 C 137.834,32.6528 146.667,43.6528 143,64.5C 136.873,77.4776 126.707,82.311 112.5,79C 97.8438,71.5153 93.3438,60.0153 99,44.5C 103.049,37.5993 108.882,33.266 116.5,31.5 Z"/></g>
<g><path style="opacity:1" fill="#e86f81" d="M 118.5,47.5 C 129.222,49.3703 131.222,54.537 124.5,63C 115.884,64.7172 112.051,61.2172 113,52.5C 114.73,50.5981 116.563,48.9314 118.5,47.5 Z"/></g>
<g><path style="opacity:1" fill="#ea6c46" d="M 495.5,72.5 C 497.147,77.0894 498.48,81.7561 499.5,86.5C 499.5,89.5 499.5,92.5 499.5,95.5C 492.457,99.3528 485.124,102.686 477.5,105.5C 476.167,100.833 476.167,96.1667 477.5,91.5C 485.576,87.0916 491.576,80.7583 495.5,72.5 Z"/></g>
<g><path style="opacity:1" fill="#010101" d="M 96.5,96.5 C 112.5,96.5 128.5,96.5 144.5,96.5C 144.5,101.833 144.5,107.167 144.5,112.5C 139.167,112.5 133.833,112.5 128.5,112.5C 128.5,128.5 128.5,144.5 128.5,160.5C 133.833,160.5 139.167,160.5 144.5,160.5C 144.5,165.833 144.5,171.167 144.5,176.5C 128.5,176.5 112.5,176.5 96.5,176.5C 96.5,171.167 96.5,165.833 96.5,160.5C 101.833,160.5 107.167,160.5 112.5,160.5C 112.5,144.5 112.5,128.5 112.5,112.5C 107.167,112.5 101.833,112.5 96.5,112.5C 96.5,107.167 96.5,101.833 96.5,96.5 Z"/></g>
<g><path style="opacity:1" fill="#ea6b44" d="M 499.5,100.5 C 499.5,103.833 499.5,107.167 499.5,110.5C 497.93,117.874 495.93,125.208 493.5,132.5C 487.413,128.694 480.746,126.694 473.5,126.5C 473.95,120.874 474.95,115.374 476.5,110C 484.447,107.355 492.113,104.189 499.5,100.5 Z"/></g>
<g><path style="opacity:1" fill="#fde8a5" d="M 402.5,192.5 C 428.995,193.498 455.661,193.831 482.5,193.5C 482.5,289.833 482.5,386.167 482.5,482.5C 396.833,482.5 311.167,482.5 225.5,482.5C 225.333,390.833 225.5,299.166 226,207.5C 234.099,203.647 239.099,197.314 241,188.5C 241.5,163.169 241.667,137.836 241.5,112.5C 295.167,112.5 348.833,112.5 402.5,112.5C 402.5,139.167 402.5,165.833 402.5,192.5 Z"/></g>
<g><path style="opacity:1" fill="#e56842" d="M 450.5,132.5 C 445.5,128.167 440.833,123.5 436.5,118.5C 447.882,116.985 459.215,114.651 470.5,111.5C 470.944,116.187 470.278,120.854 468.5,125.5C 462.484,127.843 456.484,130.177 450.5,132.5 Z"/></g>
<g><path style="opacity:1" fill="#fcfaf9" d="M 499.5,110.5 C 499.5,134.167 499.5,157.833 499.5,181.5C 492.167,174.833 485.167,167.833 478.5,160.5C 484.11,153.62 488.443,145.954 491.5,137.5C 492.931,136.22 493.598,134.553 493.5,132.5C 495.93,125.208 497.93,117.874 499.5,110.5 Z"/></g>
<g><path style="opacity:1" fill="#b0d97c" d="M 420.5,125.5 C 437.527,141.86 454.194,158.527 470.5,175.5C 453.675,176.497 436.675,176.83 419.5,176.5C 419.17,159.325 419.503,142.325 420.5,125.5 Z"/></g>
<g><path style="opacity:1" fill="#000000" d="M 257.5,128.5 C 300.5,128.5 343.5,128.5 386.5,128.5C 386.5,133.833 386.5,139.167 386.5,144.5C 343.5,144.5 300.5,144.5 257.5,144.5C 257.5,139.167 257.5,133.833 257.5,128.5 Z"/></g>
<g><path style="opacity:1" fill="#e96a44" d="M 491.5,137.5 C 488.443,145.954 484.11,153.62 478.5,160.5C 474.167,156.833 470.167,152.833 466.5,148.5C 468.568,142.626 470.235,136.626 471.5,130.5C 479.261,130.096 485.928,132.429 491.5,137.5 Z"/></g>
<g><path style="opacity:1" fill="#e16641" d="M 462.5,144.5 C 459.5,142.167 456.833,139.5 454.5,136.5C 458.231,133.312 462.564,131.812 467.5,132C 466.303,136.438 464.637,140.604 462.5,144.5 Z"/></g>
<g><path style="opacity:1" fill="#060503" d="M 257.5,160.5 C 300.5,160.5 343.5,160.5 386.5,160.5C 386.5,165.833 386.5,171.167 386.5,176.5C 343.5,176.5 300.5,176.5 257.5,176.5C 257.5,171.167 257.5,165.833 257.5,160.5 Z"/></g>
<g><path style="opacity:1" fill="#617844" d="M 420.5,125.5 C 419.503,142.325 419.17,159.325 419.5,176.5C 436.675,176.83 453.675,176.497 470.5,175.5C 471.043,175.56 471.376,175.893 471.5,176.5C 453.846,177.5 436.179,177.833 418.5,177.5C 418.167,159.821 418.5,142.154 419.5,124.5C 420.107,124.624 420.44,124.957 420.5,125.5 Z"/></g>
<g><path style="opacity:1" fill="#fdfdfd" d="M -0.5,189.5 C 2.54215,200.207 9.54215,206.873 20.5,209.5C 26.5424,217.876 33.8757,224.876 42.5,230.5C 48.5224,234.201 54.5224,237.868 60.5,241.5C 47.4479,241.099 34.4479,241.599 21.5,243C 10.8713,247.764 3.53795,255.598 -0.5,266.5C -0.5,240.833 -0.5,215.167 -0.5,189.5 Z"/></g>
<g><path style="opacity:1" fill="#666769" d="M 219.5,192.5 C 205.677,193.496 191.677,193.829 177.5,193.5C 177.828,204.014 177.494,214.347 176.5,224.5C 176.5,213.833 176.5,203.167 176.5,192.5C 190.833,192.5 205.167,192.5 219.5,192.5 Z"/></g>
<g><path style="opacity:1" fill="#c7b782" d="M 402.5,192.5 C 429.5,192.5 456.5,192.5 483.5,192.5C 483.5,289.5 483.5,386.5 483.5,483.5C 397.332,483.833 311.332,483.499 225.5,482.5C 311.167,482.5 396.833,482.5 482.5,482.5C 482.5,386.167 482.5,289.833 482.5,193.5C 455.661,193.831 428.995,193.498 402.5,192.5 Z"/></g>
<g><path style="opacity:1" fill="#f3f3f3" d="M 20.5,209.5 C 63.1719,209.167 105.839,209.5 148.5,210.5C 150.303,213.939 151.97,217.439 153.5,221C 152.224,223.281 150.557,225.281 148.5,227C 150.577,228.705 152.91,229.872 155.5,230.5C 149.132,235.016 142.466,239.016 135.5,242.5C 122.537,241.557 109.537,241.223 96.5,241.5C 98.1002,240.356 99.7669,239.189 101.5,238C 92.8333,232 85.5,224.667 79.5,216C 67.0051,216.175 54.6718,215.009 42.5,212.5C 41.2159,218.513 41.2159,224.513 42.5,230.5C 33.8757,224.876 26.5424,217.876 20.5,209.5 Z"/></g>
<g><path style="opacity:1" fill="#fdfdfd" d="M 208.5,209.5 C 208.5,260.5 208.5,311.5 208.5,362.5C 200.245,338.586 184.578,321.919 161.5,312.5C 161.5,313.833 161.5,315.167 161.5,316.5C 161.167,316.5 160.833,316.5 160.5,316.5C 160.667,299.83 160.5,283.163 160,266.5C 156.61,253.61 148.444,245.61 135.5,242.5C 142.466,239.016 149.132,235.016 155.5,230.5C 155.783,229.711 156.283,229.044 157,228.5C 159.075,232.579 161.908,236.079 165.5,239C 177.726,243.968 186.559,240.468 192,228.5C 192.5,222.175 192.666,215.842 192.5,209.5C 197.833,209.5 203.167,209.5 208.5,209.5 Z"/></g>
<g><path style="opacity:1" fill="#010000" d="M 466.5,209.5 C 466.5,252.167 466.5,294.833 466.5,337.5C 439.661,337.169 412.995,337.502 386.5,338.5C 386.5,359.833 386.5,381.167 386.5,402.5C 338.167,402.5 289.833,402.5 241.5,402.5C 241.5,354.167 241.5,305.833 241.5,257.5C 273.833,257.5 306.167,257.5 338.5,257.5C 338.5,241.5 338.5,225.5 338.5,209.5C 381.167,209.5 423.833,209.5 466.5,209.5 Z"/></g>
<g><path style="opacity:1" fill="#221e1e" d="M 96.5,241.5 C 84.5,241.5 72.5,241.5 60.5,241.5C 54.5224,237.868 48.5224,234.201 42.5,230.5C 41.2159,224.513 41.2159,218.513 42.5,212.5C 54.6718,215.009 67.0051,216.175 79.5,216C 85.5,224.667 92.8333,232 101.5,238C 99.7669,239.189 98.1002,240.356 96.5,241.5 Z"/></g>
<g><path style="opacity:1" fill="#ababa9" d="M 208.5,209.5 C 209.499,266.998 209.832,324.664 209.5,382.5C 208.733,381.828 208.066,380.995 207.5,380C 208.171,379.014 208.171,377.847 207.5,376.5C 208.486,372.03 208.819,367.363 208.5,362.5C 208.5,311.5 208.5,260.5 208.5,209.5 Z"/></g>
<g><path style="opacity:1" fill="#ee7384" d="M 450.5,225.5 C 450.5,257.5 450.5,289.5 450.5,321.5C 418.5,321.5 386.5,321.5 354.5,321.5C 354.5,289.5 354.5,257.5 354.5,225.5C 386.5,225.5 418.5,225.5 450.5,225.5 Z"/></g>
<g><path style="opacity:1" fill="#010101" d="M 60.5,241.5 C 72.5,241.5 84.5,241.5 96.5,241.5C 109.537,241.223 122.537,241.557 135.5,242.5C 148.444,245.61 156.61,253.61 160,266.5C 160.5,283.163 160.667,299.83 160.5,316.5C 160.5,321.833 160.5,327.167 160.5,332.5C 160.5,339.167 160.5,345.833 160.5,352.5C 160.5,354.5 160.5,356.5 160.5,358.5C 160.667,397.168 160.5,435.835 160,474.5C 158.49,479.558 156.323,484.225 153.5,488.5C 149.973,491.423 146.306,494.09 142.5,496.5C 139.06,497.511 135.726,498.511 132.5,499.5C 97.1667,499.5 61.8333,499.5 26.5,499.5C 11.6614,495.84 2.66143,486.507 -0.5,471.5C -0.5,403.167 -0.5,334.833 -0.5,266.5C 3.53795,255.598 10.8713,247.764 21.5,243C 34.4479,241.599 47.4479,241.099 60.5,241.5 Z"/></g>
<g><path style="opacity:1" fill="#a9b1bc" d="M 27.5,257.5 C 62.5016,257.333 97.5016,257.5 132.5,258C 140.095,260.424 144.095,265.59 144.5,273.5C 101.5,273.5 58.5,273.5 15.5,273.5C 16.1272,265.558 20.1272,260.224 27.5,257.5 Z"/></g>
<g><path style="opacity:1" fill="#e5e8ec" d="M 257.5,274.5 C 284.167,274.5 310.833,274.5 337.5,274.5C 337.169,296.007 337.503,317.34 338.5,338.5C 349.167,338.5 359.833,338.5 370.5,338.5C 370.5,354.5 370.5,370.5 370.5,386.5C 332.833,386.5 295.167,386.5 257.5,386.5C 257.5,349.167 257.5,311.833 257.5,274.5 Z"/></g>
<g><path style="opacity:1" fill="#a5a7aa" d="M 257.5,274.5 C 284.328,273.502 311.328,273.169 338.5,273.5C 338.5,295.167 338.5,316.833 338.5,338.5C 337.503,317.34 337.169,296.007 337.5,274.5C 310.833,274.5 284.167,274.5 257.5,274.5 Z"/></g>
<g><path style="opacity:1" fill="#413c2a" d="M 466.5,209.5 C 467.499,252.33 467.832,295.33 467.5,338.5C 440.5,338.5 413.5,338.5 386.5,338.5C 412.995,337.502 439.661,337.169 466.5,337.5C 466.5,294.833 466.5,252.167 466.5,209.5 Z"/></g>
<g><path style="opacity:1" fill="#a9adb4" d="M 144.5,290.5 C 101.833,290.5 59.1667,290.5 16.5,290.5C 16.5,350.833 16.5,411.167 16.5,471.5C 15.5009,411.002 15.1676,350.336 15.5,289.5C 58.6699,289.168 101.67,289.501 144.5,290.5 Z"/></g>
<g><path style="opacity:1" fill="#cbd0d8" d="M 144.5,290.5 C 144.667,350.834 144.5,411.168 144,471.5C 142.193,477.307 138.36,481.141 132.5,483C 97.5,483.667 62.5,483.667 27.5,483C 21.584,481.252 17.9173,477.419 16.5,471.5C 16.5,411.167 16.5,350.833 16.5,290.5C 59.1667,290.5 101.833,290.5 144.5,290.5 Z"/></g>
<g><path style="opacity:1" fill="#46474a" d="M 128.5,306.5 C 96.5,306.5 64.5,306.5 32.5,306.5C 32.5,327.833 32.5,349.167 32.5,370.5C 31.5027,349.006 31.1693,327.34 31.5,305.5C 64.0043,305.168 96.3376,305.502 128.5,306.5 Z"/></g>
<g><path style="opacity:1" fill="#000000" d="M 128.5,306.5 C 128.5,327.833 128.5,349.167 128.5,370.5C 96.5,370.5 64.5,370.5 32.5,370.5C 32.5,349.167 32.5,327.833 32.5,306.5C 64.5,306.5 96.5,306.5 128.5,306.5 Z"/></g>
<g><path style="opacity:1" fill="#e4cc2e" d="M 160.5,316.5 C 160.833,316.5 161.167,316.5 161.5,316.5C 170.676,320.601 178.676,326.434 185.5,334C 181.628,333.37 177.795,333.536 174,334.5C 169.638,333.139 165.138,332.472 160.5,332.5C 160.5,327.167 160.5,321.833 160.5,316.5 Z"/></g>
<g><path style="opacity:1" fill="#8b434d" d="M 112.5,322.5 C 91.1667,322.5 69.8333,322.5 48.5,322.5C 48.5,332.833 48.5,343.167 48.5,353.5C 69.8333,353.5 91.1667,353.5 112.5,353.5C 91.0064,354.497 69.3398,354.831 47.5,354.5C 47.5,343.5 47.5,332.5 47.5,321.5C 69.3398,321.169 91.0064,321.503 112.5,322.5 Z"/></g>
<g><path style="opacity:1" fill="#7f3d46" d="M 450.5,225.5 C 451.498,257.662 451.832,289.996 451.5,322.5C 418.996,322.832 386.662,322.498 354.5,321.5C 386.5,321.5 418.5,321.5 450.5,321.5C 450.5,289.5 450.5,257.5 450.5,225.5 Z"/></g>
<g><path style="opacity:1" fill="#ee7284" d="M 112.5,322.5 C 112.5,332.833 112.5,343.167 112.5,353.5C 91.1667,353.5 69.8333,353.5 48.5,353.5C 48.5,343.167 48.5,332.833 48.5,322.5C 69.8333,322.5 91.1667,322.5 112.5,322.5 Z"/></g>
<g><path style="opacity:1" fill="#f5f3ce" d="M 208.5,362.5 C 208.819,367.363 208.486,372.03 207.5,376.5C 207.832,372.324 206.498,368.824 203.5,366C 205.558,364.192 205.892,362.025 204.5,359.5C 202.073,359.477 199.74,358.977 197.5,358C 192.835,354.551 187.669,352.051 182,350.5C 174.821,350.295 167.654,350.962 160.5,352.5C 160.5,345.833 160.5,339.167 160.5,332.5C 165.138,332.472 169.638,333.139 174,334.5C 177.795,333.536 181.628,333.37 185.5,334C 178.676,326.434 170.676,320.601 161.5,316.5C 161.5,315.167 161.5,313.833 161.5,312.5C 184.578,321.919 200.245,338.586 208.5,362.5 Z"/></g>
<g><path style="opacity:1" fill="#e5cb24" d="M 176.5,353.5 C 178.314,353.772 180.314,353.939 182.5,354C 184.333,354.5 185.5,355.667 186,357.5C 189.388,368.135 192.388,378.802 195,389.5C 195.314,395.005 195.481,400.338 195.5,405.5C 194.498,407.011 193.831,408.678 193.5,410.5C 193.904,411.756 194.571,412.923 195.5,414C 194.351,415.73 194.351,417.396 195.5,419C 194.12,420.324 193.786,421.657 194.5,423C 192.843,428.751 191.343,434.584 190,440.5C 184.639,453.556 178.472,466.223 171.5,478.5C 165.816,482.395 159.816,485.729 153.5,488.5C 156.323,484.225 158.49,479.558 160,474.5C 160.5,435.835 160.667,397.168 160.5,358.5C 163.548,357.654 166.548,356.654 169.5,355.5C 170.822,355.33 171.989,355.663 173,356.5C 174.145,355.364 175.312,354.364 176.5,353.5 Z"/></g>
<g><path style="opacity:1" fill="#7a7997" d="M 207.5,376.5 C 208.171,377.847 208.171,379.014 207.5,380C 208.066,380.995 208.733,381.828 209.5,382.5C 209.5,392.167 209.5,401.833 209.5,411.5C 208.385,415.046 207.385,418.712 206.5,422.5C 205.535,429.382 203.868,435.715 201.5,441.5C 201.833,442.167 202.167,442.833 202.5,443.5C 200.809,446.847 199.142,450.181 197.5,453.5C 194.203,456.736 191.37,460.403 189,464.5C 188.667,464.167 188.333,463.833 188,463.5C 183.473,469.623 177.973,474.623 171.5,478.5C 178.472,466.223 184.639,453.556 190,440.5C 191.343,434.584 192.843,428.751 194.5,423C 193.786,421.657 194.12,420.324 195.5,419C 194.351,417.396 194.351,415.73 195.5,414C 194.571,412.923 193.904,411.756 193.5,410.5C 194.222,410.082 194.722,409.416 195,408.5C 195.333,408.833 195.667,409.167 196,409.5C 196.765,407.934 196.598,406.601 195.5,405.5C 195.481,400.338 195.314,395.005 195,389.5C 192.388,378.802 189.388,368.135 186,357.5C 185.5,355.667 184.333,354.5 182.5,354C 180.314,353.939 178.314,353.772 176.5,353.5C 173.848,353.41 171.515,354.076 169.5,355.5C 166.548,356.654 163.548,357.654 160.5,358.5C 160.5,356.5 160.5,354.5 160.5,352.5C 167.654,350.962 174.821,350.295 182,350.5C 187.669,352.051 192.835,354.551 197.5,358C 199.74,358.977 202.073,359.477 204.5,359.5C 205.892,362.025 205.558,364.192 203.5,366C 206.498,368.824 207.832,372.324 207.5,376.5 Z"/></g>
<g><path style="opacity:1" fill="#bcac62" d="M 176.5,353.5 C 175.312,354.364 174.145,355.364 173,356.5C 171.989,355.663 170.822,355.33 169.5,355.5C 171.515,354.076 173.848,353.41 176.5,353.5 Z"/></g>
<g><path style="opacity:1" fill="#020202" d="M 63.5,386.5 C 63.5,391.833 63.5,397.167 63.5,402.5C 52.8333,402.5 42.1667,402.5 31.5,402.5C 31.5,397.167 31.5,391.833 31.5,386.5C 42.1667,386.5 52.8333,386.5 63.5,386.5 Z"/></g>
<g><path style="opacity:1" fill="#040303" d="M 98.5,386.5 C 119.058,386.223 128.891,396.223 128,416.5C 121.203,432.978 109.37,438.145 92.5,432C 80.0395,422.94 77.2061,411.44 84,397.5C 87.9118,392.478 92.7451,388.811 98.5,386.5 Z"/></g>
<g><path style="opacity:1" fill="#8c8f95" d="M 63.5,386.5 C 64.4889,391.975 64.8222,397.642 64.5,403.5C 53.3206,403.828 42.3206,403.495 31.5,402.5C 42.1667,402.5 52.8333,402.5 63.5,402.5C 63.5,397.167 63.5,391.833 63.5,386.5 Z"/></g>
<g><path style="opacity:1" fill="#f3cf6c" d="M 101.5,402.5 C 109.033,402.529 112.533,406.196 112,413.5C 109.459,418.069 105.625,419.569 100.5,418C 95.0344,412.434 95.3678,407.267 101.5,402.5 Z"/></g>
<g><path style="opacity:1" fill="#b5a658" d="M 195.5,405.5 C 196.598,406.601 196.765,407.934 196,409.5C 195.667,409.167 195.333,408.833 195,408.5C 194.722,409.416 194.222,410.082 193.5,410.5C 193.831,408.678 194.498,407.011 195.5,405.5 Z"/></g>
<g><path style="opacity:1" fill="#343537" d="M 63.5,418.5 C 63.5,418.833 63.5,419.167 63.5,419.5C 53.1667,419.5 42.8333,419.5 32.5,419.5C 32.5,424.5 32.5,429.5 32.5,434.5C 32.1667,434.5 31.8333,434.5 31.5,434.5C 31.5,429.167 31.5,423.833 31.5,418.5C 42.1667,418.5 52.8333,418.5 63.5,418.5 Z"/></g>
<g><path style="opacity:1" fill="#544d37" d="M 241.5,419.5 C 316.665,418.501 391.998,418.167 467.5,418.5C 467.5,424.167 467.5,429.833 467.5,435.5C 391.998,435.833 316.665,435.499 241.5,434.5C 316.5,434.5 391.5,434.5 466.5,434.5C 466.5,429.5 466.5,424.5 466.5,419.5C 391.5,419.5 316.5,419.5 241.5,419.5 Z"/></g>
<g><path style="opacity:1" fill="#000000" d="M 63.5,419.5 C 63.5,424.5 63.5,429.5 63.5,434.5C 53.1667,434.5 42.8333,434.5 32.5,434.5C 32.5,429.5 32.5,424.5 32.5,419.5C 42.8333,419.5 53.1667,419.5 63.5,419.5 Z"/></g>
<g><path style="opacity:1" fill="#000000" d="M 241.5,419.5 C 316.5,419.5 391.5,419.5 466.5,419.5C 466.5,424.5 466.5,429.5 466.5,434.5C 391.5,434.5 316.5,434.5 241.5,434.5C 241.5,429.5 241.5,424.5 241.5,419.5 Z"/></g>
<g><path style="opacity:1" fill="#acaba8" d="M 209.5,411.5 C 209.5,440.833 209.5,470.167 209.5,499.5C 209.167,499.5 208.833,499.5 208.5,499.5C 209.157,473.478 208.491,447.812 206.5,422.5C 207.385,418.712 208.385,415.046 209.5,411.5 Z"/></g>
<g><path style="opacity:1" fill="#fdfdfc" d="M 206.5,422.5 C 208.491,447.812 209.157,473.478 208.5,499.5C 183.167,499.5 157.833,499.5 132.5,499.5C 135.726,498.511 139.06,497.511 142.5,496.5C 147.335,495.778 152.001,494.444 156.5,492.5C 168.96,484.891 180.46,475.891 191,465.5C 193.034,461.333 195.201,457.333 197.5,453.5C 199.142,450.181 200.809,446.847 202.5,443.5C 202.167,442.833 201.833,442.167 201.5,441.5C 203.868,435.715 205.535,429.382 206.5,422.5 Z"/></g>
<g><path style="opacity:1" fill="#67696d" d="M 63.5,418.5 C 64.4889,423.975 64.8222,429.642 64.5,435.5C 53.3206,435.828 42.3206,435.495 31.5,434.5C 31.8333,434.5 32.1667,434.5 32.5,434.5C 42.8333,434.5 53.1667,434.5 63.5,434.5C 63.5,429.5 63.5,424.5 63.5,419.5C 63.5,419.167 63.5,418.833 63.5,418.5 Z"/></g>
<g><path style="opacity:1" fill="#000000" d="M 128.5,451.5 C 128.5,456.5 128.5,461.5 128.5,466.5C 96.5,466.5 64.5,466.5 32.5,466.5C 32.5,461.5 32.5,456.5 32.5,451.5C 64.5,451.5 96.5,451.5 128.5,451.5 Z"/></g>
<g><path style="opacity:1" fill="#000000" d="M 434.5,451.5 C 434.5,456.5 434.5,461.5 434.5,466.5C 370.167,466.5 305.833,466.5 241.5,466.5C 241.5,461.5 241.5,456.5 241.5,451.5C 305.833,451.5 370.167,451.5 434.5,451.5 Z"/></g>
<g><path style="opacity:1" fill="#000000" d="M 466.5,451.5 C 466.5,456.5 466.5,461.5 466.5,466.5C 461.5,466.5 456.5,466.5 451.5,466.5C 451.5,461.5 451.5,456.5 451.5,451.5C 456.5,451.5 461.5,451.5 466.5,451.5 Z"/></g>
<g><path style="opacity:1" fill="#f4f2d1" d="M 197.5,453.5 C 195.201,457.333 193.034,461.333 191,465.5C 180.46,475.891 168.96,484.891 156.5,492.5C 152.001,494.444 147.335,495.778 142.5,496.5C 146.306,494.09 149.973,491.423 153.5,488.5C 159.816,485.729 165.816,482.395 171.5,478.5C 177.973,474.623 183.473,469.623 188,463.5C 188.333,463.833 188.667,464.167 189,464.5C 191.37,460.403 194.203,456.736 197.5,453.5 Z"/></g>
<g><path style="opacity:1" fill="#424446" d="M 128.5,451.5 C 96.5,451.5 64.5,451.5 32.5,451.5C 32.5,456.5 32.5,461.5 32.5,466.5C 64.5,466.5 96.5,466.5 128.5,466.5C 96.3376,467.498 64.0043,467.832 31.5,467.5C 31.5,461.833 31.5,456.167 31.5,450.5C 64.0043,450.168 96.3376,450.502 128.5,451.5 Z"/></g>
<g><path style="opacity:1" fill="#443f2d" d="M 434.5,451.5 C 435.488,456.64 435.821,461.974 435.5,467.5C 370.665,467.832 305.998,467.499 241.5,466.5C 305.833,466.5 370.167,466.5 434.5,466.5C 434.5,461.5 434.5,456.5 434.5,451.5 Z"/></g>
<g><path style="opacity:1" fill="#423d2b" d="M 466.5,451.5 C 467.488,456.64 467.821,461.974 467.5,467.5C 461.974,467.821 456.64,467.488 451.5,466.5C 456.5,466.5 461.5,466.5 466.5,466.5C 466.5,461.5 466.5,456.5 466.5,451.5 Z"/></g>
<g><path style="opacity:1" fill="#f7f7f7" d="M -0.5,471.5 C 2.66143,486.507 11.6614,495.84 26.5,499.5C 17.5,499.5 8.5,499.5 -0.5,499.5C -0.5,490.167 -0.5,480.833 -0.5,471.5 Z"/></g>
</svg>
